<svg preserveAspectRatio="none" width="100%" height="100%" overflow="visible" style="display: block;" viewBox="0 0 55 55.625" fill="none" xmlns="http://www.w3.org/2000/svg">
<g id="arrow-ios-forward">
<path id="Vector" opacity="0" d="M0 0L0 55.625L55 55.625V0L0 0Z" fill="var(--fill-0, #F3F2F2)"/>
<path id="Vector_2" d="M22.917 44.0364C22.3816 44.0375 21.8627 43.8489 21.4504 43.5034C21.2183 43.3088 21.0265 43.0698 20.8859 42.8002C20.7453 42.5305 20.6587 42.2354 20.631 41.9319C20.6033 41.6283 20.6352 41.3222 20.7246 41.0311C20.8141 40.74 20.9595 40.4696 21.1525 40.2354L31.4191 27.8125L21.5191 15.3664C21.3288 15.1293 21.1866 14.8565 21.1008 14.5637C21.015 14.2709 20.9873 13.9638 21.0193 13.6601C21.0512 13.3564 21.1422 13.0621 21.287 12.7941C21.4317 12.5261 21.6275 12.2897 21.8629 12.0984C22.1 11.8874 22.3777 11.7283 22.6785 11.6309C22.9793 11.5336 23.2967 11.5002 23.6109 11.5329C23.9251 11.5655 24.2292 11.6635 24.5041 11.8206C24.7791 11.9778 25.019 12.1907 25.2087 12.4461L36.2775 26.3523C36.6145 26.767 36.7988 27.2872 36.7988 27.8241C36.7988 28.3609 36.6145 28.8811 36.2775 29.2958L24.8191 43.202C24.5892 43.4825 24.2972 43.7043 23.9667 43.8492C23.6362 43.9942 23.2766 44.0583 22.917 44.0364Z" fill="var(--fill-0, #F3F2F2)"/>
</g>
</svg>
